<svg width="32" height="32" viewBox="0 0 32 32" fill="none" xmlns="http://www.w3.org/2000/svg">
<path fill-rule="evenodd" clip-rule="evenodd" d="M16 1C7.71573 1 1 7.71573 1 16C1 24.2843 7.71573 31 16 31C24.2843 31 31 24.2843 31 16C31 7.71573 24.2843 1 16 1ZM17.0635 16.1589V24.3197H13.6869V16.1592H12V13.3469H13.6869V11.6585C13.6869 9.36425 14.6395 8 17.3457 8H19.5988V10.8126H18.1905C17.137 10.8126 17.0673 11.2056 17.0673 11.9391L17.0635 13.3466H19.6147L19.3162 16.1589H17.0635Z" fill="white"/>
<path d="M17.0635 24.3197V24.8197H17.5635V24.3197H17.0635ZM17.0635 16.1589V15.6589H16.5635V16.1589H17.0635ZM13.6869 24.3197H13.1869V24.8197H13.6869V24.3197ZM13.6869 16.1592H14.1869V15.6592H13.6869V16.1592ZM12 16.1592H11.5V16.6592H12V16.1592ZM12 13.3469V12.8469H11.5V13.3469H12ZM13.6869 13.3469V13.8469H14.1869V13.3469H13.6869ZM19.5988 8H20.0988V7.5H19.5988V8ZM19.5988 10.8126V11.3126H20.0988V10.8126H19.5988ZM17.0673 11.9391L17.5673 11.9404V11.9391H17.0673ZM17.0635 13.3466L16.5635 13.3453L16.5621 13.8466H17.0635V13.3466ZM19.6147 13.3466L20.112 13.3994L20.1706 12.8466H19.6147V13.3466ZM19.3162 16.1589V16.6589H19.7659L19.8134 16.2117L19.3162 16.1589ZM1.5 16C1.5 7.99187 7.99187 1.5 16 1.5V0.5C7.43959 0.5 0.5 7.43959 0.5 16H1.5ZM16 30.5C7.99187 30.5 1.5 24.0081 1.5 16H0.5C0.5 24.5604 7.43959 31.5 16 31.5V30.5ZM30.5 16C30.5 24.0081 24.0081 30.5 16 30.5V31.5C24.5604 31.5 31.5 24.5604 31.5 16H30.5ZM16 1.5C24.0081 1.5 30.5 7.99187 30.5 16H31.5C31.5 7.43959 24.5604 0.5 16 0.5V1.5ZM17.5635 24.3197V16.1589H16.5635V24.3197H17.5635ZM13.6869 24.8197H17.0635V23.8197H13.6869V24.8197ZM13.1869 16.1592V24.3197H14.1869V16.1592H13.1869ZM12 16.6592H13.6869V15.6592H12V16.6592ZM11.5 13.3469V16.1592H12.5V13.3469H11.5ZM13.6869 12.8469H12V13.8469H13.6869V12.8469ZM13.1869 11.6585V13.3469H14.1869V11.6585H13.1869ZM17.3457 7.5C15.915 7.5 14.8395 7.86138 14.1332 8.63075C13.4346 9.39159 13.1869 10.4554 13.1869 11.6585H14.1869C14.1869 10.5673 14.4155 9.80189 14.8698 9.30705C15.3163 8.82075 16.0702 8.5 17.3457 8.5V7.5ZM19.5988 7.5H17.3457V8.5H19.5988V7.5ZM20.0988 10.8126V8H19.0988V10.8126H20.0988ZM18.1905 11.3126H19.5988V10.3126H18.1905V11.3126ZM17.5673 11.9391C17.5673 11.7568 17.5723 11.6307 17.588 11.5347C17.6032 11.4426 17.6229 11.4149 17.6271 11.4095C17.6292 11.4068 17.6332 11.4022 17.6437 11.3954C17.6553 11.388 17.6782 11.3756 17.7196 11.3627C17.8069 11.3354 17.9527 11.3126 18.1905 11.3126V10.3126C17.6381 10.3126 17.1423 10.4077 16.8405 10.792C16.6957 10.9766 16.6321 11.1847 16.6013 11.3726C16.571 11.5565 16.5673 11.7546 16.5673 11.9391H17.5673ZM17.5635 13.348L17.5673 11.9404L16.5673 11.9377L16.5635 13.3453L17.5635 13.348ZM19.6147 12.8466H17.0635V13.8466H19.6147V12.8466ZM19.8134 16.2117L20.112 13.3994L19.1175 13.2938L18.819 16.1061L19.8134 16.2117ZM17.0635 16.6589H19.3162V15.6589H17.0635V16.6589Z" fill="black"/>
</svg>
