<svg width="32" height="32" viewBox="0 0 32 32" fill="none" xmlns="http://www.w3.org/2000/svg">
<path fill-rule="evenodd" clip-rule="evenodd" d="M16 1C7.71573 1 1 7.71573 1 16C1 24.2843 7.71573 31 16 31C24.2843 31 31 24.2843 31 16C31 7.71573 24.2843 1 16 1ZM15.5822 13.7112L15.5508 13.1922C15.4563 11.8469 16.2852 10.6182 17.5967 10.1415C18.0794 9.97206 18.8978 9.95087 19.4329 10.0992C19.6427 10.1627 20.0414 10.3746 20.3247 10.5652L20.8388 10.9148L21.4054 10.7347C21.7202 10.6394 22.1398 10.4805 22.3287 10.3746C22.5071 10.2792 22.6645 10.2263 22.6645 10.2581C22.6645 10.4381 22.2762 11.0525 21.951 11.3915C21.5103 11.8681 21.6362 11.9105 22.5281 11.5927C23.0632 11.4126 23.0737 11.4126 22.9687 11.6139C22.9058 11.7198 22.5805 12.0906 22.2343 12.4295C21.6467 13.0121 21.6152 13.0757 21.6152 13.5629C21.6152 14.315 21.2585 15.8827 20.9018 16.7407C20.2408 18.3507 18.8243 20.0138 17.4079 20.8506C15.4144 22.0264 12.7598 22.3229 10.525 21.6344C9.78005 21.4014 8.5 20.8082 8.5 20.7023C8.5 20.6705 8.88821 20.6281 9.36036 20.6175C10.3466 20.5964 11.3329 20.321 12.1723 19.8337L12.7388 19.4947L12.0883 19.2723C11.165 18.9545 10.3361 18.2236 10.1263 17.5351C10.0633 17.3127 10.0843 17.3021 10.6719 17.3021L11.2804 17.2915L10.7663 17.0479C10.1578 16.7407 9.60168 16.2217 9.32888 15.692C9.12953 15.3107 8.87772 14.3468 8.95116 14.2726C8.97215 14.2408 9.19248 14.3044 9.4443 14.3891C10.1683 14.654 10.2627 14.5904 9.843 14.1455C9.05609 13.3405 8.81477 12.1435 9.19248 11.0101L9.37085 10.5017L10.0633 11.1902C11.4798 12.5778 13.148 13.404 15.0576 13.6477L15.5822 13.7112Z" fill="white"/>
<path d="M15.5508 13.1922L16.0499 13.1619L16.0495 13.1572L15.5508 13.1922ZM15.5822 13.7112L15.5221 14.2076L16.1176 14.2797L16.0813 13.681L15.5822 13.7112ZM17.5967 10.1415L17.4311 9.66975L17.4259 9.67161L17.5967 10.1415ZM19.4329 10.0992L19.5778 9.6205L19.5664 9.61733L19.4329 10.0992ZM20.3247 10.5652L20.6058 10.1518L20.6039 10.1504L20.3247 10.5652ZM20.8388 10.9148L20.5577 11.3283L20.7587 11.4649L20.9903 11.3913L20.8388 10.9148ZM21.4054 10.7347L21.2604 10.2561L21.2539 10.2582L21.4054 10.7347ZM22.3287 10.3746L22.093 9.93352L22.0841 9.93848L22.3287 10.3746ZM21.951 11.3915L21.5902 11.0452L21.5838 11.052L21.951 11.3915ZM22.5281 11.5927L22.3686 11.1188L22.3602 11.1217L22.5281 11.5927ZM22.9687 11.6139L23.3986 11.8694L23.4057 11.8574L23.4121 11.845L22.9687 11.6139ZM22.2343 12.4295L21.8845 12.0722L21.8822 12.0745L22.2343 12.4295ZM20.9018 16.7407L20.4401 16.5487L20.4392 16.5508L20.9018 16.7407ZM17.4079 20.8506L17.6619 21.2813L17.6622 21.2811L17.4079 20.8506ZM10.525 21.6344L10.3757 22.1116L10.3778 22.1123L10.525 21.6344ZM9.36036 20.6175L9.34962 20.1177L9.34914 20.1177L9.36036 20.6175ZM12.1723 19.8337L12.4233 20.2662L12.429 20.2628L12.1723 19.8337ZM12.7388 19.4947L12.9955 19.9238L13.9206 19.3704L12.9006 19.0216L12.7388 19.4947ZM12.0883 19.2723L11.9256 19.7451L11.9266 19.7454L12.0883 19.2723ZM10.1263 17.5351L9.64509 17.6713L9.64801 17.6809L10.1263 17.5351ZM10.6719 17.3021L10.6719 17.8022L10.6806 17.802L10.6719 17.3021ZM11.2804 17.2915L11.2891 17.7914L11.4945 16.8397L11.2804 17.2915ZM10.7663 17.0479L10.5409 17.4944L10.5522 17.4997L10.7663 17.0479ZM9.32888 15.692L9.77339 15.4631L9.77199 15.4604L9.32888 15.692ZM8.95116 14.2726L9.3064 14.6245L9.34117 14.5894L9.3684 14.5482L8.95116 14.2726ZM9.4443 14.3891L9.61612 13.9194L9.60377 13.9153L9.4443 14.3891ZM9.843 14.1455L10.2068 13.8024L10.2006 13.796L9.843 14.1455ZM9.19248 11.0101L8.72062 10.8446L8.71813 10.852L9.19248 11.0101ZM9.37085 10.5017L9.72339 10.1471L9.16139 9.58834L8.89904 10.3362L9.37085 10.5017ZM10.0633 11.1902L9.71079 11.5448L9.71344 11.5474L10.0633 11.1902ZM15.0576 13.6477L14.9943 14.1437L14.9975 14.144L15.0576 13.6477ZM1.5 16C1.5 7.99187 7.99187 1.5 16 1.5V0.5C7.43959 0.5 0.5 7.43959 0.5 16H1.5ZM16 30.5C7.99187 30.5 1.5 24.0081 1.5 16H0.5C0.5 24.5604 7.43959 31.5 16 31.5V30.5ZM30.5 16C30.5 24.0081 24.0081 30.5 16 30.5V31.5C24.5604 31.5 31.5 24.5604 31.5 16H30.5ZM16 1.5C24.0081 1.5 30.5 7.99187 30.5 16H31.5C31.5 7.43959 24.5604 0.5 16 0.5V1.5ZM15.0517 13.2225L15.0831 13.7415L16.0813 13.681L16.0498 13.1619L15.0517 13.2225ZM17.4259 9.67161C15.9169 10.2201 14.941 11.6465 15.052 13.2272L16.0495 13.1572C15.9716 12.0473 16.6535 11.0164 17.7675 10.6115L17.4259 9.67161ZM19.5664 9.61733C19.2383 9.52641 18.8483 9.49259 18.4832 9.50133C18.1198 9.51003 17.7383 9.56191 17.4311 9.66978L17.7624 10.6133C17.9378 10.5517 18.2068 10.5082 18.5071 10.501C18.8056 10.4939 19.0923 10.5236 19.2993 10.581L19.5664 9.61733ZM20.6039 10.1504C20.3049 9.94923 19.8579 9.70547 19.5778 9.62064L19.2879 10.5777C19.4275 10.62 19.7779 10.7999 20.0455 10.98L20.6039 10.1504ZM21.1199 10.5013L20.6058 10.1518L20.0436 10.9787L20.5577 11.3283L21.1199 10.5013ZM21.2539 10.2582L20.6874 10.4383L20.9903 11.3913L21.5568 11.2112L21.2539 10.2582ZM22.0841 9.93848C21.9436 10.0173 21.5656 10.1638 21.2605 10.2562L21.5503 11.2133C21.8747 11.115 22.3361 10.9437 22.5733 10.8107L22.0841 9.93848ZM23.1645 10.2581C23.1645 10.1436 23.1252 10.0201 23.0349 9.91933C22.9533 9.82826 22.8596 9.78882 22.8021 9.77144C22.6976 9.73985 22.608 9.74954 22.5808 9.75263C22.5081 9.76085 22.4417 9.78181 22.401 9.7958C22.3077 9.82784 22.1989 9.87702 22.093 9.93361L22.5644 10.8155C22.6369 10.7768 22.6959 10.7518 22.726 10.7415C22.7469 10.7343 22.7309 10.742 22.6933 10.7463C22.6837 10.7474 22.6078 10.7574 22.5126 10.7286C22.4598 10.7126 22.3696 10.6752 22.2903 10.5868C22.2024 10.4888 22.1645 10.3686 22.1645 10.2581H23.1645ZM22.3118 11.7376C22.5037 11.5376 22.7022 11.2705 22.8527 11.0318C22.9285 10.9115 22.9983 10.7886 23.0512 10.6762C23.0775 10.6202 23.103 10.5597 23.1228 10.4988C23.1401 10.4452 23.1645 10.3577 23.1645 10.2581H22.1645C22.1645 10.2034 22.1766 10.1745 22.1715 10.1903C22.1688 10.1988 22.1614 10.2185 22.1462 10.2507C22.1161 10.3147 22.0686 10.4004 22.0067 10.4986C21.8818 10.6968 21.7235 10.9063 21.5902 11.0453L22.3118 11.7376ZM22.3602 11.1217C22.1404 11.2001 21.9831 11.2506 21.876 11.2779C21.8221 11.2917 21.7937 11.2962 21.7838 11.2972C21.7602 11.2998 21.8183 11.288 21.9036 11.3176C21.9542 11.3351 22.0309 11.3731 22.0973 11.4521C22.1671 11.5351 22.1972 11.6297 22.2033 11.7104C22.2089 11.7837 22.1947 11.8385 22.1867 11.8639C22.1782 11.8909 22.1695 11.9069 22.1682 11.9092C22.1663 11.9126 22.1739 11.8988 22.2029 11.8627C22.2299 11.8289 22.2676 11.7855 22.3181 11.7309L21.5838 11.052C21.4745 11.1704 21.3605 11.3024 21.2915 11.4282C21.2626 11.4807 21.1932 11.6152 21.2062 11.7864C21.2139 11.8873 21.2505 11.9989 21.332 12.0958C21.4101 12.1886 21.5035 12.2373 21.5761 12.2624C21.7053 12.3072 21.8282 12.2983 21.891 12.2915C21.9674 12.2832 22.0469 12.2663 22.1233 12.2468C22.2769 12.2076 22.4698 12.1443 22.6959 12.0637L22.3602 11.1217ZM23.4121 11.845C23.4247 11.8208 23.4415 11.7885 23.456 11.757C23.4681 11.7307 23.4938 11.6735 23.5085 11.6042C23.5202 11.5491 23.5537 11.3578 23.4193 11.1751C23.2801 10.9857 23.0793 10.964 23.0119 10.9609C22.9333 10.9572 22.8645 10.9701 22.8271 10.978C22.783 10.9873 22.7377 10.9998 22.6949 11.0125C22.6099 11.0378 22.4995 11.0748 22.3686 11.1188L22.6875 12.0666C22.8242 12.0206 22.9157 11.9901 22.9799 11.971C23.0118 11.9616 23.0278 11.9577 23.0336 11.9564C23.0459 11.9538 23.0153 11.9621 22.965 11.9598C22.9257 11.9579 22.7431 11.9435 22.6137 11.7674C22.4891 11.5981 22.524 11.4262 22.5303 11.3965C22.5396 11.3527 22.553 11.3271 22.5477 11.3387C22.5448 11.3449 22.539 11.3567 22.5254 11.3828L23.4121 11.845ZM22.5841 12.7868C22.7656 12.6091 22.9412 12.4235 23.0806 12.2674C23.2059 12.1272 23.3378 11.9715 23.3986 11.8694L22.5389 11.3584C22.5439 11.35 22.5331 11.3677 22.4884 11.4226C22.4498 11.4701 22.3976 11.531 22.3348 11.6012C22.2094 11.7417 22.0492 11.911 21.8845 12.0722L22.5841 12.7868ZM22.1152 13.5629C22.1152 13.3159 22.1295 13.2969 22.1437 13.2707C22.1821 13.2001 22.2733 13.0949 22.5863 12.7846L21.8822 12.0745C21.6077 12.3467 21.3894 12.5646 21.2651 12.7932C21.1167 13.0663 21.1152 13.3227 21.1152 13.5629H22.1152ZM21.3635 16.9326C21.5568 16.4676 21.7427 15.831 21.88 15.2221C22.016 14.619 22.1152 13.9956 22.1152 13.5629H21.1152C21.1152 13.8823 21.0361 14.4188 20.9045 15.0021C20.7743 15.5795 20.6035 16.1558 20.4401 16.5487L21.3635 16.9326ZM17.6622 21.2811C19.1775 20.3859 20.6643 18.6357 21.3643 16.9306L20.4392 16.5508C19.8173 18.0658 18.4711 19.6417 17.1535 20.4201L17.6622 21.2811ZM10.3778 22.1123C12.7441 22.8413 15.5446 22.53 17.6619 21.2813L17.1539 20.4199C15.2841 21.5227 12.7756 21.8046 10.6722 21.1566L10.3778 22.1123ZM8 20.7023C8 20.827 8.045 20.9191 8.07064 20.9635C8.09867 21.0121 8.12932 21.0477 8.14936 21.0692C8.18938 21.112 8.23152 21.1449 8.26022 21.166C8.32087 21.2106 8.39423 21.2549 8.46627 21.2955C8.61437 21.3789 8.8111 21.4766 9.02362 21.5747C9.44747 21.7703 9.97511 21.9863 10.3757 22.1116L10.6743 21.1572C10.3299 21.0495 9.84508 20.8524 9.44266 20.6667C9.24205 20.5741 9.07221 20.4891 8.95702 20.4242C8.89742 20.3906 8.86496 20.3694 8.8527 20.3604C8.84494 20.3547 8.85885 20.3638 8.87976 20.3861C8.89024 20.3974 8.91361 20.4236 8.93675 20.4637C8.9575 20.4997 9 20.5841 9 20.7023H8ZM9.34914 20.1177C9.10274 20.1232 8.87421 20.1371 8.70248 20.1545C8.61865 20.1631 8.53768 20.1735 8.47157 20.1865C8.44195 20.1924 8.39451 20.2026 8.34583 20.2204C8.3247 20.2281 8.27374 20.2476 8.21892 20.2858C8.19146 20.3049 8 20.4375 8 20.7023H9C9 20.8353 8.94789 20.9361 8.9031 20.9966C8.86049 21.0542 8.81508 21.0892 8.79003 21.1067C8.74113 21.1407 8.69897 21.156 8.68937 21.1595C8.66377 21.1689 8.65035 21.1705 8.6645 21.1677C8.68594 21.1635 8.73153 21.1568 8.80376 21.1494C8.94419 21.1351 9.14584 21.1225 9.37157 21.1174L9.34914 20.1177ZM11.9212 19.4013C11.156 19.8455 10.2526 20.0983 9.34962 20.1177L9.3711 21.1174C10.4407 21.0945 11.5098 20.7964 12.4233 20.2661L11.9212 19.4013ZM12.4821 19.0657L11.9156 19.4046L12.429 20.2628L12.9955 19.9238L12.4821 19.0657ZM11.9266 19.7454L12.5771 19.9678L12.9006 19.0216L12.2501 18.7992L11.9266 19.7454ZM9.64801 17.6809C9.7889 18.1432 10.118 18.572 10.5085 18.9173C10.9046 19.2676 11.3995 19.564 11.9256 19.7451L12.251 18.7995C11.8539 18.6628 11.4726 18.4349 11.171 18.1682C10.8637 17.8965 10.6735 17.6156 10.6046 17.3894L9.64801 17.6809ZM10.6719 16.8021C10.5278 16.8021 10.4026 16.8026 10.3032 16.8079C10.2209 16.8123 10.0835 16.8217 9.95763 16.8759C9.8833 16.9078 9.7893 16.9649 9.7142 17.0665C9.63713 17.1708 9.60987 17.2815 9.60361 17.3694C9.5939 17.506 9.63574 17.6379 9.64518 17.6713L10.6074 17.399C10.6039 17.3867 10.6016 17.378 10.5998 17.3714C10.5981 17.3647 10.5977 17.3625 10.5979 17.3635C10.5981 17.3642 10.5995 17.3713 10.6006 17.3829C10.6017 17.3944 10.6029 17.4144 10.6011 17.4403C10.5971 17.496 10.5786 17.5794 10.5185 17.6608C10.4603 17.7394 10.3916 17.7778 10.3527 17.7945C10.3171 17.8098 10.2946 17.8123 10.3021 17.8111C10.3074 17.8103 10.3235 17.8083 10.3566 17.8065C10.4245 17.8029 10.5222 17.8021 10.6719 17.8021V16.8021ZM11.2717 16.7916L10.6632 16.8022L10.6806 17.802L11.2891 17.7914L11.2717 16.7916ZM10.5522 17.4997L11.0663 17.7433L11.4945 16.8397L10.9804 16.596L10.5522 17.4997ZM8.88438 15.921C9.21366 16.5603 9.85559 17.1482 10.541 17.4942L10.9916 16.6015C10.4599 16.3331 9.9897 15.883 9.77338 15.4631L8.88438 15.921ZM8.59593 13.9208C8.48392 14.0338 8.45733 14.1643 8.44997 14.2029C8.4393 14.2588 8.4379 14.3092 8.43814 14.3429C8.43864 14.4122 8.44725 14.4848 8.45696 14.548C8.47702 14.6786 8.5125 14.8366 8.5543 14.9948C8.63554 15.3024 8.75961 15.6823 8.88578 15.9237L9.77199 15.4604C9.6988 15.3204 9.59729 15.0277 9.52115 14.7394C9.48426 14.5998 9.4581 14.479 9.44537 14.3962C9.43868 14.3526 9.43811 14.3347 9.43812 14.3357C9.43813 14.3372 9.43813 14.3423 9.43758 14.3502C9.43706 14.3578 9.43577 14.3718 9.43226 14.3903C9.42918 14.4064 9.40923 14.5207 9.3064 14.6245L8.59593 13.9208ZM9.60377 13.9153C9.47523 13.872 9.34221 13.8298 9.23353 13.8024C9.18212 13.7894 9.11671 13.7747 9.05247 13.7681C9.0229 13.7651 8.96694 13.7607 8.9019 13.7694C8.86786 13.774 8.66417 13.7999 8.53393 13.9971L9.3684 14.5482C9.30229 14.6483 9.21659 14.6997 9.1608 14.7245C9.10574 14.749 9.05889 14.7573 9.0342 14.7606C8.98621 14.767 8.95287 14.7631 8.95084 14.7629C8.94169 14.762 8.95104 14.7625 8.98881 14.772C9.05849 14.7896 9.16155 14.8215 9.28482 14.863L9.60377 13.9153ZM9.4793 14.4886C9.52708 14.5393 9.56359 14.5803 9.59053 14.613C9.60385 14.6291 9.61378 14.6419 9.62094 14.6517C9.62447 14.6565 9.62706 14.6602 9.62888 14.6629C9.6307 14.6656 9.63149 14.6669 9.63148 14.6669C9.63146 14.6668 9.63118 14.6664 9.63068 14.6655C9.63019 14.6646 9.62943 14.6632 9.62846 14.6613C9.6266 14.6577 9.62351 14.6515 9.61991 14.6427C9.61367 14.6275 9.60047 14.592 9.59503 14.5413C9.58942 14.4891 9.59086 14.4074 9.62972 14.3172C9.67068 14.222 9.73806 14.1527 9.80815 14.1091C9.87223 14.0692 9.92986 14.0556 9.9602 14.0506C9.99176 14.0453 10.0136 14.0459 10.0199 14.0462C10.031 14.0466 10.0226 14.0473 9.98482 14.0385C9.91106 14.0212 9.79237 13.9841 9.61606 13.9196L9.27254 14.8587C9.45821 14.9266 9.6228 14.9808 9.75725 15.0122C9.82353 15.0277 9.9005 15.0421 9.97859 15.0453C10.0387 15.0478 10.1898 15.0495 10.3369 14.9579C10.4224 14.9046 10.5007 14.8229 10.5482 14.7126C10.5936 14.6072 10.5972 14.5076 10.5893 14.4345C10.5752 14.3035 10.5184 14.2011 10.4877 14.1502C10.419 14.0364 10.3138 13.9159 10.2067 13.8024L9.4793 14.4886ZM8.71813 10.852C8.28701 12.1457 8.55519 13.5434 9.48545 14.495L10.2006 13.796C9.55698 13.1376 9.34252 12.1414 9.66684 11.1682L8.71813 10.852ZM8.89904 10.3362L8.72068 10.8446L9.66429 11.1756L9.84266 10.6672L8.89904 10.3362ZM10.4159 10.8356L9.72339 10.1471L9.01832 10.8563L9.7108 11.5448L10.4159 10.8356ZM15.1209 13.1517C13.3242 12.9225 11.7553 12.1478 10.4132 10.833L9.71344 11.5474C11.2042 13.0078 12.9719 13.8856 14.9943 14.1436L15.1209 13.1517ZM15.6424 13.2149L15.1178 13.1513L14.9975 14.144L15.5221 14.2076L15.6424 13.2149Z" fill="black"/>
</svg>
